<?xml version="1.0" encoding="utf-8"?>
<!-- Generator: Adobe Illustrator 17.0.0, SVG Export Plug-In . SVG Version: 6.00 Build 0)  -->
<!DOCTYPE svg PUBLIC "-//W3C//DTD SVG 1.1//EN" "http://www.w3.org/Graphics/SVG/1.1/DTD/svg11.dtd">
<svg version="1.1" id="Layer_1" xmlns="http://www.w3.org/2000/svg" xmlns:xlink="http://www.w3.org/1999/xlink" x="0px" y="0px"
	 width="99.466px" height="100px" viewBox="0 0 99.466 100" enable-background="new 0 0 99.466 100" xml:space="preserve">
<path fill="#FFFFFF" d="M55.701,82.239V47.017h2.839c2.599,0,4.706-2.375,4.706-4.974c0-2.601-2.107-4.973-4.706-4.973h-2.839
	V25.976c3.979-2.052,7.908-6.863,7.908-12.457C63.609,6.066,57.363,0,49.911,0c-7.454,0-13.562,6.066-13.562,13.519
	c0,5.664,3.438,10.516,8.412,12.525V37.07h-3.84c-2.602,0-4.708,2.372-4.708,4.973c0,2.599,2.106,4.974,4.708,4.974h3.84v35.245
	c-11.937-1.746-23.295-9.828-28.431-21.59L7.724,64.44c6.636,15.198,20.128,25.492,37.038,27.288v3.566
	c0,2.599,2.871,4.707,5.471,4.707c2.599,0,5.47-2.108,5.47-4.707v-3.585c15.915-1.857,29.867-12.128,36.475-27.27l-8.447-3.768
	C78.62,72.375,66.643,80.441,55.701,82.239z M49.729,9.415c2.262,0,4.103,1.842,4.103,4.103s-1.841,4.102-4.103,4.102
	s-4.102-1.841-4.102-4.102S47.468,9.415,49.729,9.415z"/>
<path fill="#FFFFFF" d="M99.445,59.457l-1.688-15.883c-0.192-1.841-1.582-2.455-3.074-1.365l-12.91,9.401
	c-1.493,1.09-1.332,2.599,0.353,3.347l14.603,6.479C98.412,62.188,99.641,61.292,99.445,59.457z"/>
<path fill="#FFFFFF" d="M17.695,51.61L4.783,42.209c-1.492-1.09-2.883-0.476-3.075,1.365L0.02,59.457
	c-0.191,1.835,1.033,2.731,2.717,1.979l14.601-6.479C19.026,54.208,19.185,52.7,17.695,51.61z"/>
</svg>
